# xmcd
#
# Track frame offsets:
#	150
#	16752
#	33697
#	51737
#	66100
#	76507
#	106432
#	121770
#	142192
#	166397
#	189870
#	217497
#	231387
#
# Disc length: 3306 seconds
#
# Revision: 1
# Processed by: cddbd v1.5.2PL0 Copyright (c) Steve Scherf et al.
# Submitted via: EasyCDDAExtractor 4.6.0.1
#
DISCID=bb0ce80d
DTITLE=Henry Johnson - The Union County Flash!
DYEAR=1972
DGENRE=Blues
TTITLE0=Join the army
TTITLE1=Who's going home with you
TTITLE2=Boogie, Baby
TTITLE3=Rufe's impromptu rag
TTITLE4=My mothers grave will be found
TTITLE5=My baby's house
TTITLE6=Be glad when you're dead
TTITLE7=Little Sally Jones
TTITLE8=John Henry
TTITLE9=Crow Jane
TTITLE10=My dog's blues
TTITLE11=Old home town
TTITLE12=The sign of the judgement
EXTD=
EXTT0=
EXTT1=
EXTT2=
EXTT3=
EXTT4=
EXTT5=
EXTT6=
EXTT7=
EXTT8=
EXTT9=
EXTT10=
EXTT11=
EXTT12=
PLAYORDER=
